<svg width="32" height="32" viewBox="0 0 32 32" fill="none" xmlns="http://www.w3.org/2000/svg">
<path fill-rule="evenodd" clip-rule="evenodd" d="M16.0061 29.9998C23.7367 29.9998 30 23.7365 30 16.0061C30 8.26328 23.7367 2 16.0061 2C8.27561 2 2 8.26328 2 16.0061C2 23.7365 8.27561 29.9998 16.0061 29.9998Z" fill="url(#paint0_linear)"/>
<path fill-rule="evenodd" clip-rule="evenodd" d="M8.52221 23.3914C9.40431 24.2732 10.4299 24.9985 11.5552 25.5365L8.52221 18.5829L5.99471 12.7882C5.66182 13.7992 5.48921 14.8842 5.48921 16.0061C5.48921 18.8788 6.64816 21.4927 8.52221 23.3914ZM23.4898 26.0791C26.5598 23.7982 28.5571 20.1363 28.5571 16.0061C28.5571 11.8758 26.5598 8.214 23.4898 5.92075C21.3938 4.36726 18.8048 3.44257 16.0061 3.44257C13.2073 3.44257 10.6182 4.36726 8.52221 5.92075C5.45222 8.214 3.45487 11.8758 3.45487 16.0061C3.45487 20.1363 5.45222 23.7982 8.52221 26.0791C10.6182 27.6325 13.2073 28.5573 16.0061 28.5573C18.8048 28.5573 21.3938 27.6326 23.4898 26.0791ZM23.4898 8.62087C23.8635 8.99491 24.2058 9.39903 24.5133 9.82914L23.4898 12.1964L19.6309 21.0611L17.6336 16.5116H14.3786L12.3813 21.0611L8.52221 12.1964L7.49888 9.82914C7.80626 9.39899 8.14853 8.99487 8.52221 8.62087C9.16248 7.96716 9.88828 7.40312 10.6798 6.94409L14.3293 15.439H17.6827L21.3322 6.94409C22.1237 7.40312 22.8495 7.96716 23.4898 8.62087ZM23.4898 18.5829L26.0173 12.7882C26.3504 13.7992 26.523 14.8842 26.523 16.0061C26.523 18.8787 25.364 21.4927 23.4898 23.3914C22.6078 24.2732 21.5822 24.9985 20.457 25.5365L23.4898 18.5829ZM16.0061 19.3967L18.9406 26.0915C17.9874 26.3704 16.9993 26.5115 16.0061 26.5107C15.013 26.5115 14.0249 26.3703 13.0717 26.0915L16.0061 19.3967ZM16.0061 12.8128L19.0269 5.93308C18.0774 5.63718 17.0541 5.48923 16.0061 5.48923C14.9581 5.48923 13.9471 5.63718 12.9854 5.93308L16.0061 12.8128Z" fill="white"/>
<defs>
<linearGradient id="paint0_linear" x1="2.00431" y1="2.0043" x2="29.9955" y2="29.9955" gradientUnits="userSpaceOnUse">
<stop stop-color="#2088FA"/>
<stop offset="1" stop-color="#032B5C"/>
</linearGradient>
</defs>
</svg>
