<?xml version="1.0" encoding="UTF-8"?>
<svg width="659px" height="300px" viewBox="0 0 659 300" version="1.1" xmlns="http://www.w3.org/2000/svg" xmlns:xlink="http://www.w3.org/1999/xlink">
    <!-- Generator: Sketch 53.2 (72643) - https://sketchapp.com -->
    <title>Artboard</title>
    <desc>Created with Sketch.</desc>
    <g id="Artboard" stroke="none" stroke-width="1" fill="none" fill-rule="evenodd">
        <g id="Logo-Stormdigital-2019" transform="translate(0.000000, 0.000000)" fill="#000000" fill-rule="nonzero">
            <g id="Group" transform="translate(198.447205, 0.931677)">
                <path d="M71.2732919,48.5403727 C56.0869565,46.5838509 45.3726708,45.5590062 39.3167702,45.5590062 C33.2608696,45.5590062 29.3478261,46.1180124 27.484472,47.2360248 C25.7142857,48.3540373 24.7826087,50.1242236 24.7826087,52.4534161 C24.7826087,54.8757764 25.9937888,56.4596273 28.4161491,57.3913043 C30.8385093,58.3229814 36.9875776,59.6273292 46.863354,61.3975155 C56.7391304,63.1677019 63.8198758,66.0559006 67.9192547,70.1552795 C72.1118012,74.1614907 74.1614907,80.7763975 74.1614907,89.9068323 C74.1614907,109.84472 61.863354,119.720497 37.173913,119.720497 C29.068323,119.720497 19.2857143,118.602484 7.73291925,116.36646 L1.86335404,115.248447 L2.60869565,94.6583851 C17.7950311,96.6149068 28.4161491,97.6397516 34.378882,97.6397516 C40.3416149,97.6397516 44.3478261,97.0807453 46.4906832,95.8695652 C48.6335404,94.6583851 49.7515528,92.9813665 49.7515528,90.6521739 C49.7515528,88.3229814 48.6335404,86.6459627 46.3043478,85.5279503 C44.068323,84.4099379 38.1055901,83.1055901 28.6024845,81.4285714 C19.0993789,79.8447205 12.0186335,77.1428571 7.36024845,73.3229814 C2.70186335,69.5031056 0.372670807,62.7018634 0.372670807,53.0124224 C0.372670807,43.3229814 3.72670807,35.8695652 10.3416149,30.931677 C16.9565217,25.9937888 25.5279503,23.4782609 35.9627329,23.4782609 C43.2298137,23.4782609 53.1055901,24.689441 65.5900621,27.0186335 L71.6459627,28.136646 L71.2732919,48.5403727 Z" id="Path"></path>
                <path d="M143.10559,46.5838509 L120.465839,46.5838509 L120.465839,84.3167702 C120.465839,88.0434783 120.559006,90.6521739 120.745342,92.1428571 C120.931677,93.6335404 121.583851,95.0310559 122.795031,96.1490683 C124.006211,97.2670807 125.776398,97.826087 128.198758,97.826087 L142.173913,97.4534161 L143.291925,117.204969 C135.093168,119.068323 128.757764,120 124.47205,120 C113.385093,120 105.838509,117.484472 101.832298,112.546584 C97.826087,107.608696 95.7763975,98.3850932 95.7763975,84.9689441 L95.7763975,46.5838509 L84.8757764,46.5838509 L84.8757764,25.621118 L95.7763975,25.621118 L95.7763975,0 L120.465839,0 L120.465839,25.621118 L143.10559,25.621118 L143.10559,46.5838509 Z" id="Path"></path>
                <path d="M164.068323,35.9627329 C170.590062,27.5776398 181.397516,23.3850932 196.677019,23.3850932 C211.863354,23.3850932 222.763975,27.5776398 229.285714,35.9627329 C235.807453,44.3478261 239.068323,56.1801242 239.068323,71.4596273 C239.068323,103.78882 224.906832,119.906832 196.677019,119.906832 C168.447205,119.906832 154.285714,103.78882 154.285714,71.4596273 C154.285714,56.1801242 157.546584,44.3478261 164.068323,35.9627329 Z M183.167702,92.2360248 C185.68323,96.6149068 190.15528,98.8509317 196.677019,98.8509317 C203.198758,98.8509317 207.670807,96.6149068 210.186335,92.2360248 C212.701863,87.8571429 214.006211,80.8695652 214.006211,71.4596273 C214.006211,62.0496894 212.701863,55.1552795 210.186335,50.8695652 C207.670807,46.5838509 203.198758,44.4409938 196.677019,44.4409938 C190.15528,44.4409938 185.68323,46.5838509 183.167702,50.8695652 C180.652174,55.1552795 179.347826,62.0496894 179.347826,71.4596273 C179.347826,80.8695652 180.652174,87.8571429 183.167702,92.2360248 Z" id="Shape"></path>
                <path d="M257.049689,117.670807 L257.049689,25.621118 L281.552795,25.621118 L281.552795,35.4037267 C291.89441,29.2546584 301.677019,25.2484472 310.993789,23.4782609 L310.993789,48.3540373 C301.024845,50.4037267 292.546584,52.5465839 285.372671,54.7826087 L281.645963,56.0869565 L281.645963,117.763975 L257.049689,117.763975 L257.049689,117.670807 Z" id="Path"></path>
                <path d="M350.310559,117.670807 L325.621118,117.670807 L325.621118,25.621118 L350.124224,25.621118 L350.124224,30.7453416 C358.602484,25.8074534 365.869565,23.3850932 371.832298,23.3850932 C381.801242,23.3850932 389.440994,26.2732919 394.84472,32.0496894 C406.118012,26.2732919 416.459627,23.3850932 425.776398,23.3850932 C437.888199,23.3850932 446.36646,26.9254658 451.118012,34.0062112 C455.869565,41.0869565 458.198758,52.3602484 458.198758,67.826087 L458.198758,117.763975 L433.509317,117.763975 L433.509317,68.5714286 C433.509317,60.7453416 432.670807,54.8757764 430.900621,51.1490683 C429.223602,47.4223602 425.776398,45.5590062 420.559006,45.5590062 C416.645963,45.5590062 411.801242,46.3975155 406.21118,48.1677019 L403.416149,49.0993789 C403.881988,58.3229814 404.161491,65.310559 404.161491,70.0621118 L404.161491,117.763975 L379.47205,117.763975 L379.47205,70.4347826 C379.47205,61.3043478 378.63354,54.9689441 377.049689,51.1490683 C375.465839,47.4223602 371.925466,45.5590062 366.521739,45.5590062 C361.770186,45.5590062 357.018634,46.3975155 352.360248,48.1677019 L350.124224,48.9130435 L350.124224,117.670807 L350.310559,117.670807 Z" id="Path"></path>
            </g>
            <g id="Group" transform="translate(199.378882, 142.546584)">
                <path d="M25.0621118,71.8322981 L0,71.8322981 L0,1.77018634 L25.0621118,1.77018634 C41.3664596,1.77018634 49.5652174,13.136646 49.5652174,35.8695652 C49.5652174,59.8136646 41.3664596,71.8322981 25.0621118,71.8322981 Z M43.2298137,35.8695652 C43.2298137,16.9565217 37.173913,7.45341615 25.1552795,7.45341615 L6.24223602,7.45341615 L6.24223602,66.3354037 L25.1552795,66.3354037 C37.173913,66.242236 43.2298137,56.1801242 43.2298137,35.8695652 Z" id="Shape"></path>
                <polygon id="Path" points="64.0062112 71.8322981 64.0062112 1.77018634 70.1552795 1.77018634 70.1552795 71.8322981"></polygon>
                <path d="M114.409938,41.2732919 L114.409938,35.8695652 L133.136646,35.8695652 L133.136646,69.1304348 C131.180124,69.5031056 127.826087,70.0621118 123.074534,70.621118 C118.229814,71.2732919 114.223602,71.552795 111.055901,71.552795 C101.180124,71.552795 94.2857143,68.6645963 90.4658385,62.7950311 C86.6459627,57.0186335 84.689441,48.1677019 84.689441,36.3354037 C84.689441,30.4658385 85.0621118,25.4347826 85.9006211,21.242236 C86.7391304,17.0496894 88.0434783,13.4161491 90.0931677,10.1552795 C93.8198758,3.81987578 100.807453,0.652173913 110.962733,0.652173913 C117.204969,0.652173913 123.447205,1.30434783 129.875776,2.51552795 L133.136646,3.16770186 L132.857143,8.38509317 C124.565217,6.89440994 117.484472,6.14906832 111.428571,6.14906832 C103.416149,6.14906832 98.0124224,8.57142857 95.2173913,13.3229814 C92.4223602,18.0745342 91.0248447,25.7142857 91.0248447,36.1490683 C91.0248447,46.5838509 92.4223602,54.1304348 95.2173913,58.7888199 C98.0124224,63.447205 103.416149,65.7763975 111.335404,65.7763975 C115.993789,65.7763975 121.304348,65.2173913 127.080745,64.1925466 L127.080745,40.9937888 L114.409938,40.9937888 L114.409938,41.2732919 Z" id="Path"></path>
                <polygon id="Path" points="148.416149 71.8322981 148.416149 1.77018634 154.565217 1.77018634 154.565217 71.8322981"></polygon>
                <polygon id="Path" points="164.534161 7.45341615 164.534161 1.77018634 214.006211 1.77018634 214.006211 7.45341615 192.391304 7.45341615 192.391304 71.8322981 186.242236 71.8322981 186.242236 7.45341615"></polygon>
                <path d="M212.888199,71.8322981 L232.732919,1.77018634 L247.080745,1.77018634 L266.832298,71.8322981 L260.776398,71.8322981 L255.186335,52.4534161 L224.534161,52.4534161 L219.130435,71.8322981 L212.888199,71.8322981 Z M237.204969,7.26708075 L226.024845,46.9565217 L253.78882,46.9565217 L242.608696,7.26708075 L237.204969,7.26708075 Z" id="Shape"></path>
                <polygon id="Path" points="315.465839 71.8322981 277.826087 71.8322981 277.826087 1.77018634 283.975155 1.77018634 283.975155 66.1490683 315.465839 66.1490683 315.465839 71.8322981"></polygon>
            </g>
            <g id="Group">
                <path d="M65.9627329,0.931677019 C65.9627329,22.6397516 65.9627329,44.2546584 65.9627329,66.242236 C44.068323,66.242236 22.3602484,66.242236 0.652173913,66.242236 C0.745341615,31.1180124 34.0062112,0.186335404 65.9627329,0.931677019 Z" id="Path"></path>
                <path d="M141.521739,66.242236 C119.813665,66.242236 98.1987578,66.242236 76.2111801,66.242236 C76.2111801,44.3478261 76.2111801,22.6397516 76.2111801,0.931677019 C111.335404,1.02484472 142.267081,34.2857143 141.521739,66.242236 Z" id="Path"></path>
                <path d="M0.652173913,76.5838509 C22.3602484,76.5838509 43.9751553,76.5838509 65.9627329,76.5838509 C65.9627329,98.4782609 65.9627329,120.186335 65.9627329,141.89441 C30.8385093,141.801242 -0.0931677019,108.540373 0.652173913,76.5838509 Z" id="Path"></path>
                <path d="M141.428571,141.89441 C119.813665,141.89441 98.2919255,141.89441 76.3043478,141.89441 C76.3043478,120 76.3043478,98.2919255 76.3043478,76.5838509 C111.335404,76.6770186 142.173913,109.937888 141.428571,141.89441 Z" id="Path"></path>
                <path d="M76.3975155,217.546584 C76.3975155,195.838509 76.3975155,174.223602 76.3975155,152.236025 C98.1987578,152.236025 119.813665,152.236025 141.521739,152.236025 C141.335404,187.267081 108.167702,218.198758 76.3975155,217.546584 Z" id="Path"></path>
                <path d="M0.652173913,152.142857 C22.3602484,152.142857 43.9751553,152.142857 65.9627329,152.142857 C65.9627329,174.037267 65.9627329,195.745342 65.9627329,217.453416 C30.8385093,217.453416 -0.0931677019,184.099379 0.652173913,152.142857 Z" id="Path"></path>
            </g>
            <g id="Group" transform="translate(0.000000, 261.801242)">
                <path d="M0,3.35403727 L9.68944099,3.35403727 C11.2732919,3.35403727 12.8571429,3.54037267 14.3478261,3.91304348 C15.8385093,4.28571429 17.0496894,4.8447205 18.1677019,5.68322981 C19.2857143,6.52173913 20.1242236,7.54658385 20.7763975,8.75776398 C21.4285714,10.0621118 21.7080745,11.552795 21.7080745,13.3229814 L21.7080745,13.5093168 C21.7080745,15.3726708 21.4285714,16.863354 20.7763975,18.1677019 C20.1242236,19.4720497 19.2857143,20.4968944 18.1677019,21.3354037 C17.0496894,22.173913 15.8385093,22.7329193 14.3478261,23.1055901 C12.8571429,23.4782609 11.3664596,23.6645963 9.68944099,23.6645963 L4.09937888,23.6645963 L4.09937888,37.5465839 L0,37.5465839 L0,3.35403727 Z M9.9689441,20.310559 C12.3913043,20.310559 14.2546584,19.7515528 15.5590062,18.5403727 C16.863354,17.4223602 17.515528,15.6521739 17.515528,13.5093168 L17.515528,13.3229814 C17.515528,10.9006211 16.863354,9.22360248 15.4658385,8.19875776 C14.1614907,7.17391304 12.2981366,6.70807453 9.9689441,6.70807453 L4.09937888,6.70807453 L4.09937888,20.310559 L9.9689441,20.310559 Z" id="Shape"></path>
                <path d="M34.0993789,37.9192547 C32.9813665,37.9192547 31.863354,37.7329193 30.8385093,37.4534161 C29.8136646,37.173913 28.9751553,36.7080745 28.2298137,36.1490683 C27.484472,35.5900621 26.9254658,34.7515528 26.4596273,33.8198758 C25.9937888,32.8881988 25.8074534,31.7701863 25.8074534,30.5590062 C25.8074534,29.1614907 26.1801242,27.9503106 26.8322981,26.9254658 C27.5776398,25.9006211 28.5093168,25.1552795 29.6273292,24.5031056 C30.7453416,23.9440994 32.1428571,23.4782609 33.6335404,23.1987578 C35.1242236,22.9192547 36.7080745,22.826087 38.2919255,22.826087 L41.8322981,22.826087 L41.8322981,21.0559006 C41.8322981,19.0993789 41.4596273,17.6086957 40.621118,16.7701863 C39.7826087,15.931677 38.3850932,15.4658385 36.5217391,15.4658385 C33.0745342,15.4658385 31.2111801,16.9565217 30.7453416,19.9378882 L26.7391304,19.9378882 C26.8322981,18.5403727 27.2049689,17.3291925 27.8571429,16.3043478 C28.4161491,15.2795031 29.1614907,14.5341615 30.0931677,13.8819876 C31.0248447,13.2298137 32.0496894,12.8571429 33.1677019,12.5776398 C34.2857143,12.2981366 35.4968944,12.2049689 36.7080745,12.2049689 C37.9192547,12.2049689 39.0372671,12.2981366 40.1552795,12.5776398 C41.2732919,12.8571429 42.2049689,13.3229814 43.0434783,13.9751553 C43.8819876,14.6273292 44.5341615,15.5590062 45.0931677,16.7701863 C45.5590062,17.8881988 45.8385093,19.378882 45.8385093,21.1490683 L45.8385093,37.6397516 L41.9254658,37.6397516 L41.9254658,34.4720497 C40.9937888,35.6832298 39.9689441,36.5217391 38.757764,37.173913 C37.4534161,37.6397516 35.9627329,37.9192547 34.0993789,37.9192547 Z M34.4720497,34.8447205 C35.4968944,34.8447205 36.5217391,34.7515528 37.4534161,34.4720497 C38.3850932,34.1925466 39.1304348,33.8198758 39.7826087,33.2608696 C40.4347826,32.7950311 40.9937888,32.1428571 41.3664596,31.3975155 C41.7391304,30.6521739 41.9254658,29.8136646 41.9254658,28.8819876 L41.9254658,25.8074534 L38.4782609,25.8074534 C37.2670807,25.8074534 36.0559006,25.9006211 35.0310559,26.0869565 C34.0062112,26.2732919 33.0745342,26.552795 32.2360248,26.9254658 C31.4906832,27.2981366 30.8385093,27.7639752 30.4658385,28.4161491 C30,29.068323 29.8136646,29.8136646 29.8136646,30.7453416 C29.8136646,32.0496894 30.1863354,33.0745342 30.8385093,33.8198758 C31.4906832,34.378882 32.7018634,34.8447205 34.4720497,34.8447205 Z" id="Shape"></path>
                <path d="M54.2236025,12.484472 L58.2298137,12.484472 L58.2298137,16.9565217 C58.6024845,16.2111801 59.068323,15.6521739 59.5341615,15 C60,14.4409938 60.5590062,13.8819876 61.2111801,13.5093168 C61.863354,13.0434783 62.6086957,12.7639752 63.447205,12.484472 C64.2857143,12.2049689 65.310559,12.1118012 66.4285714,12.0186335 L66.4285714,15.7453416 C65.2173913,15.8385093 64.0993789,15.931677 63.0745342,16.2111801 C62.0496894,16.4906832 61.2111801,16.863354 60.4658385,17.515528 C59.7204969,18.0745342 59.1614907,18.9130435 58.7888199,19.9378882 C58.4161491,20.9627329 58.2298137,22.173913 58.2298137,23.757764 L58.2298137,37.4534161 L54.2236025,37.4534161 L54.2236025,12.484472 Z" id="Path"></path>
                <path d="M80.5900621,37.826087 C78.2608696,37.826087 76.5838509,37.2670807 75.4658385,36.0559006 C74.3478261,34.8447205 73.7888199,33.2608696 73.7888199,31.3043478 L73.7888199,15.8385093 L70.2484472,15.8385093 L70.2484472,12.484472 L73.7888199,12.484472 L73.7888199,6.80124224 L77.7950311,6.80124224 L77.7950311,12.484472 L83.6645963,12.484472 L83.6645963,15.8385093 L77.7950311,15.8385093 L77.7950311,30.8385093 C77.7950311,33.2608696 78.8198758,34.4720497 80.8695652,34.4720497 C81.5217391,34.4720497 82.0807453,34.378882 82.5465839,34.2857143 C83.0124224,34.1925466 83.4782609,34.0993789 83.9440994,33.9130435 L83.9440994,37.2670807 C83.5714286,37.4534161 83.1055901,37.5465839 82.5465839,37.6397516 C82.0807453,37.826087 81.4285714,37.826087 80.5900621,37.826087 Z" id="Path"></path>
                <path d="M113.571429,37.9192547 C111.801242,37.9192547 110.124224,37.6397516 108.63354,36.9875776 C107.142857,36.3354037 105.838509,35.4968944 104.720497,34.378882 C103.602484,33.2608696 102.763975,31.863354 102.204969,30.3726708 C101.552795,28.7888199 101.273292,27.1118012 101.273292,25.3416149 L101.273292,24.9689441 C101.273292,23.1055901 101.552795,21.3354037 102.204969,19.8447205 C102.857143,18.2608696 103.695652,16.9565217 104.720497,15.8385093 C105.838509,14.7204969 107.049689,13.7888199 108.63354,13.2298137 C110.124224,12.5776398 111.801242,12.2981366 113.571429,12.2981366 C115.341615,12.2981366 116.925466,12.5776398 118.509317,13.2298137 C120,13.8819876 121.304348,14.7204969 122.42236,15.8385093 C123.540373,16.9565217 124.378882,18.2608696 124.937888,19.8447205 C125.590062,21.4285714 125.869565,23.1055901 125.869565,24.9689441 L125.869565,25.3416149 C125.869565,27.2049689 125.590062,28.9751553 124.937888,30.5590062 C124.285714,32.1428571 123.447205,33.447205 122.329193,34.5652174 C121.21118,35.6832298 119.906832,36.5217391 118.416149,37.173913 C117.018634,37.6397516 115.341615,37.9192547 113.571429,37.9192547 Z M113.664596,34.5652174 C114.875776,34.5652174 115.993789,34.378882 117.018634,33.9130435 C118.043478,33.447205 118.881988,32.7950311 119.627329,32.0496894 C120.372671,31.2111801 120.838509,30.2795031 121.21118,29.068323 C121.583851,27.9503106 121.770186,26.6459627 121.770186,25.2484472 L121.770186,24.8757764 C121.770186,23.4782609 121.583851,22.173913 121.21118,20.9627329 C120.838509,19.7515528 120.279503,18.8198758 119.534161,17.9813665 C118.78882,17.1428571 117.950311,16.4906832 116.925466,16.1180124 C115.900621,15.6521739 114.782609,15.4658385 113.571429,15.4658385 C112.360248,15.4658385 111.242236,15.6521739 110.217391,16.1180124 C109.192547,16.5838509 108.354037,17.2360248 107.608696,17.9813665 C106.863354,18.8198758 106.397516,19.7515528 106.024845,20.9627329 C105.652174,22.0807453 105.465839,23.3850932 105.465839,24.8757764 L105.465839,25.2484472 C105.465839,28.136646 106.21118,30.3726708 107.608696,32.0496894 C109.099379,33.7267081 111.055901,34.5652174 113.664596,34.5652174 Z" id="Shape"></path>
                <path d="M133.509317,15.8385093 L129.968944,15.8385093 L129.968944,12.484472 L133.509317,12.484472 L133.509317,8.38509317 C133.509317,5.86956522 134.161491,3.81987578 135.372671,2.42236025 C136.583851,1.02484472 138.447205,0.279503106 140.962733,0.279503106 C141.614907,0.279503106 142.080745,0.279503106 142.546584,0.372670807 C142.919255,0.465838509 143.385093,0.559006211 143.944099,0.745341615 L143.944099,4.09937888 C143.571429,3.91304348 143.198758,3.81987578 142.639752,3.72670807 C142.173913,3.63354037 141.614907,3.54037267 141.055901,3.54037267 C139.751553,3.54037267 138.819876,3.91304348 138.26087,4.7515528 C137.701863,5.59006211 137.42236,6.61490683 137.42236,7.82608696 L137.42236,12.2981366 L143.571429,12.2981366 L143.571429,15.6521739 L137.42236,15.6521739 L137.42236,37.2670807 L133.416149,37.2670807 L133.416149,15.8385093 L133.509317,15.8385093 Z" id="Path"></path>
                <path d="M170.68323,3.35403727 L180.745342,3.35403727 L191.832298,37.5465839 L183.726708,37.5465839 L181.397516,29.9068323 L169.006211,29.9068323 L166.677019,37.5465839 L159.409938,37.5465839 L170.68323,3.35403727 Z M170.68323,24.4099379 L179.720497,24.4099379 L175.248447,9.59627329 L170.68323,24.4099379 Z" id="Shape"></path>
                <path d="M207.111801,38.0124224 C205.248447,38.0124224 203.571429,37.7329193 201.987578,37.173913 C200.403727,36.6149068 199.006211,35.7763975 197.888199,34.7515528 C196.770186,33.6335404 195.838509,32.3291925 195.186335,30.7453416 C194.534161,29.1614907 194.161491,27.3913043 194.161491,25.3416149 L194.161491,24.9689441 C194.161491,22.9192547 194.534161,21.1490683 195.186335,19.5652174 C195.838509,17.9813665 196.770186,16.5838509 197.981366,15.4658385 C199.192547,14.3478261 200.496894,13.5093168 202.080745,12.9503106 C203.664596,12.3913043 205.341615,12.1118012 207.111801,12.1118012 C208.509317,12.1118012 209.906832,12.2981366 211.304348,12.5776398 C212.701863,12.9503106 213.913043,13.4161491 214.937888,14.2546584 C215.962733,15 216.89441,16.0248447 217.546584,17.2360248 C218.291925,18.447205 218.664596,20.0310559 218.850932,21.8012422 L212.329193,21.8012422 C212.142857,20.4037267 211.583851,19.2857143 210.745342,18.6335404 C209.906832,17.8881988 208.78882,17.6086957 207.298137,17.6086957 C205.434783,17.6086957 204.037267,18.2608696 202.919255,19.5652174 C201.801242,20.8695652 201.335404,22.7329193 201.335404,25.0621118 L201.335404,25.4347826 C201.335404,27.9503106 201.89441,29.8136646 202.919255,31.1180124 C203.944099,32.4223602 205.52795,32.9813665 207.391304,32.9813665 C208.78882,32.9813665 210,32.6086957 211.024845,31.7701863 C212.049689,31.0248447 212.608696,29.8136646 212.795031,28.136646 L219.037267,28.136646 C218.944099,29.6273292 218.571429,31.0248447 218.012422,32.2360248 C217.453416,33.447205 216.614907,34.4720497 215.590062,35.4037267 C214.565217,36.3354037 213.354037,36.9875776 211.863354,37.4534161 C210.559006,37.826087 208.881988,38.0124224 207.111801,38.0124224 Z" id="Path"></path>
                <path d="M235.341615,38.0124224 C233.478261,38.0124224 231.801242,37.7329193 230.217391,37.173913 C228.63354,36.6149068 227.236025,35.7763975 226.118012,34.7515528 C225,33.6335404 224.068323,32.3291925 223.416149,30.7453416 C222.763975,29.1614907 222.391304,27.3913043 222.391304,25.3416149 L222.391304,24.9689441 C222.391304,22.9192547 222.763975,21.1490683 223.416149,19.5652174 C224.068323,17.9813665 225,16.5838509 226.21118,15.4658385 C227.42236,14.3478261 228.726708,13.5093168 230.310559,12.9503106 C231.89441,12.3913043 233.571429,12.1118012 235.341615,12.1118012 C236.73913,12.1118012 238.136646,12.2981366 239.534161,12.5776398 C240.931677,12.9503106 242.142857,13.4161491 243.167702,14.2546584 C244.192547,15 245.124224,16.0248447 245.776398,17.2360248 C246.521739,18.447205 246.89441,20.0310559 247.080745,21.8012422 L240.559006,21.8012422 C240.372671,20.4037267 239.813665,19.2857143 238.975155,18.6335404 C238.136646,17.8881988 237.018634,17.6086957 235.52795,17.6086957 C233.664596,17.6086957 232.267081,18.2608696 231.149068,19.5652174 C230.031056,20.8695652 229.565217,22.7329193 229.565217,25.0621118 L229.565217,25.4347826 C229.565217,27.9503106 230.124224,29.8136646 231.149068,31.1180124 C232.173913,32.4223602 233.757764,32.9813665 235.621118,32.9813665 C237.018634,32.9813665 238.229814,32.6086957 239.254658,31.7701863 C240.279503,31.0248447 240.838509,29.8136646 241.024845,28.136646 L247.267081,28.136646 C247.173913,29.6273292 246.801242,31.0248447 246.242236,32.2360248 C245.68323,33.447205 244.84472,34.4720497 243.819876,35.4037267 C242.795031,36.3354037 241.583851,36.9875776 240.093168,37.4534161 C238.78882,37.826087 237.111801,38.0124224 235.341615,38.0124224 Z" id="Path"></path>
                <path d="M263.664596,38.0124224 C261.801242,38.0124224 260.031056,37.7329193 258.447205,37.173913 C256.863354,36.6149068 255.465839,35.7763975 254.347826,34.6583851 C253.136646,33.5403727 252.204969,32.2360248 251.552795,30.6521739 C250.900621,29.068323 250.52795,27.2981366 250.52795,25.3416149 L250.52795,24.9689441 C250.52795,23.0124224 250.807453,21.242236 251.552795,19.6583851 C252.204969,18.0745342 253.136646,16.6770186 254.347826,15.5590062 C255.465839,14.4409938 256.863354,13.6024845 258.447205,12.9503106 C260.031056,12.2981366 261.708075,12.0186335 263.478261,12.0186335 C265.062112,12.0186335 266.645963,12.2981366 268.136646,12.7639752 C269.627329,13.2298137 270.931677,13.9751553 272.049689,15 C273.167702,16.0248447 274.099379,17.3291925 274.751553,18.9130435 C275.403727,20.4968944 275.776398,22.4534161 275.776398,24.689441 L275.776398,26.6459627 L257.795031,26.6459627 C257.888199,28.7888199 258.447205,30.3726708 259.565217,31.4906832 C260.590062,32.6086957 262.080745,33.1677019 264.037267,33.1677019 C265.621118,33.1677019 266.925466,32.8881988 267.670807,32.2360248 C268.509317,31.5838509 268.975155,30.7453416 269.254658,29.7204969 L275.776398,29.7204969 C275.403727,32.4223602 274.099379,34.4720497 272.049689,35.9627329 C269.906832,37.3602484 267.111801,38.0124224 263.664596,38.0124224 Z M268.975155,22.3602484 C268.881988,20.4037267 268.322981,19.0062112 267.391304,18.1677019 C266.459627,17.2360248 265.15528,16.7701863 263.478261,16.7701863 C261.89441,16.7701863 260.590062,17.2360248 259.658385,18.2608696 C258.63354,19.1925466 257.981366,20.5900621 257.795031,22.3602484 L268.975155,22.3602484 Z" id="Shape"></path>
                <path d="M280.807453,12.484472 L287.701863,12.484472 L287.701863,16.4906832 C288.354037,15.2795031 289.285714,14.1614907 290.68323,13.3229814 C291.987578,12.3913043 293.757764,12.0186335 295.807453,12.0186335 C297.018634,12.0186335 298.136646,12.2049689 299.161491,12.5776398 C300.186335,12.9503106 301.118012,13.5093168 301.863354,14.2546584 C302.608696,15.0931677 303.167702,16.0248447 303.540373,17.3291925 C303.913043,18.5403727 304.192547,20.0310559 304.192547,21.6149068 L304.192547,37.5465839 L297.298137,37.5465839 L297.298137,22.6397516 C297.298137,20.9627329 296.925466,19.6583851 296.273292,18.8198758 C295.52795,17.9813665 294.409938,17.6086957 292.919255,17.6086957 C291.428571,17.6086957 290.217391,18.0745342 289.192547,19.0062112 C288.167702,19.9378882 287.701863,21.3354037 287.701863,23.1055901 L287.701863,37.5465839 L280.807453,37.5465839 L280.807453,12.484472 Z" id="Path"></path>
                <path d="M319.937888,38.0124224 C317.329193,38.0124224 315.279503,37.3602484 313.881988,36.0559006 C312.484472,34.7515528 311.832298,32.7950311 311.832298,30.1863354 L311.832298,17.515528 L308.664596,17.515528 L308.664596,12.5776398 L311.832298,12.5776398 L311.832298,7.17391304 L318.726708,7.17391304 L318.726708,12.5776398 L323.944099,12.5776398 L323.944099,17.515528 L318.726708,17.515528 L318.726708,29.5341615 C318.726708,30.5590062 318.913043,31.3043478 319.378882,31.7701863 C319.84472,32.2360248 320.496894,32.515528 321.428571,32.515528 C321.89441,32.515528 322.453416,32.515528 322.826087,32.4223602 C323.291925,32.3291925 323.664596,32.2360248 324.037267,32.0496894 L324.037267,37.3602484 C323.571429,37.5465839 323.012422,37.6397516 322.267081,37.826087 C321.708075,37.9192547 320.869565,38.0124224 319.937888,38.0124224 Z" id="Path"></path>
                <path d="M337.732919,38.0124224 C336.521739,38.0124224 335.403727,37.826087 334.378882,37.4534161 C333.354037,37.0807453 332.42236,36.5217391 331.677019,35.7763975 C330.931677,35.0310559 330.279503,34.0062112 329.906832,32.7950311 C329.440994,31.5838509 329.254658,30.1863354 329.254658,28.6024845 L329.254658,12.484472 L336.149068,12.484472 L336.149068,27.6708075 C336.149068,29.3478261 336.521739,30.5590062 337.267081,31.3975155 C338.012422,32.2360248 339.037267,32.7018634 340.52795,32.7018634 C342.018634,32.7018634 343.229814,32.2360248 344.254658,31.3043478 C345.279503,30.3726708 345.745342,28.9751553 345.745342,27.2049689 L345.745342,12.484472 L352.639752,12.484472 L352.639752,37.4534161 L345.652174,37.4534161 L345.652174,33.5403727 C345,34.8447205 344.068323,35.8695652 342.763975,36.7080745 C341.459627,37.6397516 339.782609,38.0124224 337.732919,38.0124224 Z" id="Path"></path>
                <path d="M359.254658,12.484472 L366.149068,12.484472 L366.149068,17.2360248 C366.987578,15.5590062 368.012422,14.2546584 369.223602,13.4161491 C370.52795,12.5776398 372.111801,12.1118012 374.161491,12.1118012 L374.161491,18.5403727 C371.552795,18.5403727 369.596273,19.0062112 368.198758,19.9378882 C366.801242,20.8695652 366.055901,22.5465839 366.055901,24.9689441 L366.055901,37.4534161 L359.161491,37.4534161 L359.161491,12.484472 L359.254658,12.484472 Z" id="Path"></path>
                <path d="M390.372671,38.0124224 C388.509317,38.0124224 386.73913,37.7329193 385.15528,37.173913 C383.571429,36.6149068 382.173913,35.7763975 381.055901,34.6583851 C379.84472,33.5403727 378.913043,32.2360248 378.26087,30.6521739 C377.608696,29.068323 377.236025,27.2981366 377.236025,25.3416149 L377.236025,24.9689441 C377.236025,23.0124224 377.608696,21.242236 378.26087,19.6583851 C378.913043,18.0745342 379.84472,16.6770186 381.055901,15.5590062 C382.173913,14.4409938 383.571429,13.6024845 385.15528,12.9503106 C386.73913,12.2981366 388.416149,12.0186335 390.186335,12.0186335 C391.770186,12.0186335 393.354037,12.2981366 394.84472,12.7639752 C396.335404,13.2298137 397.639752,13.9751553 398.757764,15 C399.875776,16.0248447 400.807453,17.3291925 401.459627,18.9130435 C402.111801,20.4968944 402.484472,22.4534161 402.484472,24.689441 L402.484472,26.6459627 L384.503106,26.6459627 C384.596273,28.7888199 385.15528,30.3726708 386.273292,31.4906832 C387.298137,32.6086957 388.78882,33.1677019 390.745342,33.1677019 C392.329193,33.1677019 393.63354,32.8881988 394.378882,32.2360248 C395.217391,31.5838509 395.68323,30.7453416 395.962733,29.7204969 L402.484472,29.7204969 C402.111801,32.4223602 400.807453,34.4720497 398.757764,35.9627329 C396.614907,37.3602484 393.819876,38.0124224 390.372671,38.0124224 Z M395.68323,22.3602484 C395.590062,20.4037267 395.031056,19.0062112 394.099379,18.1677019 C393.167702,17.2360248 391.863354,16.7701863 390.186335,16.7701863 C388.602484,16.7701863 387.298137,17.2360248 386.36646,18.2608696 C385.341615,19.1925466 384.689441,20.5900621 384.503106,22.3602484 L395.68323,22.3602484 Z" id="Shape"></path>
                <polygon id="Path" points="421.677019 3.35403727 425.869565 3.35403727 425.869565 37.5465839 421.677019 37.5465839"></polygon>
                <path d="M435,12.484472 L439.006211,12.484472 L439.006211,16.4906832 C439.565217,15.2795031 440.496894,14.2546584 441.89441,13.4161491 C443.291925,12.5776398 444.968944,12.1118012 447.018634,12.1118012 C448.322981,12.1118012 449.440994,12.2981366 450.559006,12.6708075 C451.677019,13.0434783 452.608696,13.6024845 453.354037,14.4409938 C454.099379,15.2795031 454.751553,16.3043478 455.124224,17.6086957 C455.590062,18.9130435 455.776398,20.4037267 455.776398,22.2670807 L455.776398,37.6397516 L451.770186,37.6397516 L451.770186,21.8944099 C451.770186,19.6583851 451.304348,18.0745342 450.372671,17.0496894 C449.440994,16.0248447 447.950311,15.5590062 445.900621,15.5590062 C444.968944,15.5590062 444.130435,15.7453416 443.291925,16.0248447 C442.453416,16.3043478 441.708075,16.7701863 441.055901,17.3291925 C440.403727,17.8881988 439.937888,18.6335404 439.565217,19.4720497 C439.192547,20.310559 439.006211,21.3354037 439.006211,22.4534161 L439.006211,37.6397516 L435,37.6397516 L435,12.484472 L435,12.484472 Z" id="Path"></path>
                <path d="M471.708075,37.826087 C469.378882,37.826087 467.701863,37.2670807 466.583851,36.0559006 C465.465839,34.8447205 464.906832,33.2608696 464.906832,31.3043478 L464.906832,15.8385093 L461.36646,15.8385093 L461.36646,12.484472 L464.906832,12.484472 L464.906832,6.80124224 L468.913043,6.80124224 L468.913043,12.484472 L474.782609,12.484472 L474.782609,15.8385093 L468.913043,15.8385093 L468.913043,30.8385093 C468.913043,33.2608696 469.937888,34.4720497 471.987578,34.4720497 C472.639752,34.4720497 473.198758,34.378882 473.664596,34.2857143 C474.130435,34.1925466 474.596273,34.0993789 475.062112,33.9130435 L475.062112,37.2670807 C474.689441,37.4534161 474.223602,37.5465839 473.664596,37.6397516 C473.198758,37.826087 472.546584,37.826087 471.708075,37.826087 Z" id="Path"></path>
                <path d="M491.925466,37.9192547 C490.15528,37.9192547 488.478261,37.6397516 487.080745,36.9875776 C485.590062,36.4285714 484.378882,35.4968944 483.26087,34.4720497 C482.142857,33.3540373 481.304348,32.0496894 480.745342,30.4658385 C480.186335,28.8819876 479.906832,27.2049689 479.906832,25.2484472 L479.906832,24.8757764 C479.906832,23.0124224 480.186335,21.242236 480.745342,19.6583851 C481.304348,18.0745342 482.142857,16.7701863 483.167702,15.5590062 C484.192547,14.4409938 485.403727,13.5093168 486.89441,12.9503106 C488.291925,12.2981366 489.875776,12.0186335 491.645963,12.0186335 C493.043478,12.0186335 494.440994,12.2981366 495.838509,12.6708075 C497.236025,13.136646 498.354037,13.8819876 499.47205,14.9068323 C500.496894,15.931677 501.335404,17.2360248 501.987578,18.8198758 C502.639752,20.4037267 502.919255,22.3602484 502.919255,24.5962733 L502.919255,25.9006211 L484.099379,25.9006211 C484.192547,28.6956522 484.937888,30.8385093 486.242236,32.3291925 C487.546584,33.8198758 489.503106,34.5652174 492.111801,34.5652174 C496.024845,34.5652174 498.26087,33.1677019 498.726708,30.2795031 L502.732919,30.2795031 C502.267081,32.7950311 501.149068,34.6583851 499.192547,35.9627329 C497.142857,37.2670807 494.720497,37.9192547 491.925466,37.9192547 Z M498.726708,22.6397516 C498.540373,20.0310559 497.795031,18.2608696 496.583851,17.1428571 C495.279503,16.0248447 493.695652,15.4658385 491.552795,15.4658385 C489.503106,15.4658385 487.826087,16.1180124 486.521739,17.4223602 C485.217391,18.7267081 484.378882,20.4968944 484.099379,22.6397516 L498.726708,22.6397516 L498.726708,22.6397516 Z" id="Shape"></path>
                <path d="M509.347826,12.484472 L513.354037,12.484472 L513.354037,16.9565217 C513.726708,16.2111801 514.192547,15.6521739 514.658385,15 C515.124224,14.4409938 515.68323,13.8819876 516.335404,13.5093168 C516.987578,13.0434783 517.732919,12.7639752 518.571429,12.484472 C519.409938,12.2049689 520.434783,12.1118012 521.552795,12.0186335 L521.552795,15.7453416 C520.341615,15.8385093 519.223602,15.931677 518.198758,16.2111801 C517.173913,16.4906832 516.335404,16.863354 515.590062,17.515528 C514.84472,18.0745342 514.285714,18.9130435 513.913043,19.9378882 C513.540373,20.9627329 513.354037,22.173913 513.354037,23.757764 L513.354037,37.4534161 L509.347826,37.4534161 L509.347826,12.484472 L509.347826,12.484472 Z" id="Path"></path>
                <path d="M533.944099,37.9192547 C532.826087,37.9192547 531.708075,37.7329193 530.68323,37.4534161 C529.658385,37.173913 528.819876,36.7080745 528.074534,36.1490683 C527.329193,35.5900621 526.770186,34.7515528 526.304348,33.8198758 C525.838509,32.8881988 525.652174,31.7701863 525.652174,30.5590062 C525.652174,29.1614907 526.024845,27.9503106 526.677019,26.9254658 C527.42236,25.9006211 528.354037,25.1552795 529.47205,24.5031056 C530.590062,23.9440994 531.987578,23.4782609 533.478261,23.1987578 C534.968944,22.9192547 536.552795,22.826087 538.136646,22.826087 L541.677019,22.826087 L541.677019,21.0559006 C541.677019,19.0993789 541.304348,17.6086957 540.465839,16.7701863 C539.627329,15.931677 538.229814,15.4658385 536.36646,15.4658385 C532.919255,15.4658385 531.055901,16.9565217 530.590062,19.9378882 L526.583851,19.9378882 C526.677019,18.5403727 527.049689,17.3291925 527.701863,16.3043478 C528.354037,15.2795031 529.006211,14.5341615 529.937888,13.8819876 C530.869565,13.2298137 531.89441,12.8571429 533.012422,12.5776398 C534.130435,12.2981366 535.341615,12.2049689 536.552795,12.2049689 C537.763975,12.2049689 538.881988,12.2981366 540,12.5776398 C541.118012,12.8571429 542.049689,13.3229814 542.888199,13.9751553 C543.726708,14.6273292 544.378882,15.5590062 544.937888,16.7701863 C545.403727,17.8881988 545.68323,19.378882 545.68323,21.1490683 L545.68323,37.6397516 L541.677019,37.6397516 L541.677019,34.4720497 C540.745342,35.6832298 539.720497,36.5217391 538.509317,37.173913 C537.391304,37.6397516 535.807453,37.9192547 533.944099,37.9192547 Z M534.31677,34.8447205 C535.341615,34.8447205 536.36646,34.7515528 537.298137,34.4720497 C538.229814,34.1925466 538.975155,33.8198758 539.627329,33.2608696 C540.279503,32.7950311 540.838509,32.1428571 541.21118,31.3975155 C541.583851,30.6521739 541.770186,29.8136646 541.770186,28.8819876 L541.770186,25.8074534 L538.322981,25.8074534 C537.111801,25.8074534 535.900621,25.9006211 534.875776,26.0869565 C533.850932,26.2732919 532.919255,26.552795 532.080745,26.9254658 C531.335404,27.2981366 530.68323,27.7639752 530.310559,28.4161491 C529.84472,29.068323 529.658385,29.8136646 529.658385,30.7453416 C529.658385,32.0496894 530.031056,33.0745342 530.68323,33.8198758 C531.335404,34.378882 532.639752,34.8447205 534.31677,34.8447205 Z" id="Shape"></path>
                <path d="M564.503106,37.9192547 C562.732919,37.9192547 561.149068,37.6397516 559.658385,37.0807453 C558.167702,36.5217391 556.863354,35.6832298 555.745342,34.5652174 C554.627329,33.447205 553.78882,32.1428571 553.136646,30.5590062 C552.484472,28.9751553 552.204969,27.2049689 552.204969,25.3416149 L552.204969,24.9689441 C552.204969,23.0124224 552.484472,21.3354037 553.136646,19.7515528 C553.78882,18.1677019 554.627329,16.863354 555.745342,15.7453416 C556.863354,14.6273292 558.167702,13.7888199 559.565217,13.136646 C561.055901,12.484472 562.639752,12.2049689 564.31677,12.2049689 C565.621118,12.2049689 566.925466,12.3913043 568.136646,12.6708075 C569.347826,12.9503106 570.465839,13.5093168 571.397516,14.1614907 C572.329193,14.8136646 573.167702,15.7453416 573.819876,16.863354 C574.47205,17.9813665 574.937888,19.378882 575.124224,20.9627329 L571.21118,20.9627329 C570.931677,19.0062112 570.093168,17.6086957 568.78882,16.7701863 C567.484472,15.931677 565.993789,15.5590062 564.31677,15.5590062 C563.198758,15.5590062 562.080745,15.7453416 561.149068,16.2111801 C560.217391,16.6770186 559.378882,17.2360248 558.63354,18.0745342 C557.888199,18.9130435 557.329193,19.8447205 556.956522,21.0559006 C556.583851,22.2670807 556.304348,23.5714286 556.304348,24.9689441 L556.304348,25.3416149 C556.304348,28.4161491 557.049689,30.7453416 558.540373,32.3291925 C560.031056,33.9130435 561.987578,34.6583851 564.409938,34.6583851 C565.341615,34.6583851 566.180124,34.5652174 566.925466,34.2857143 C567.763975,34.0062112 568.509317,33.6335404 569.161491,33.1677019 C569.813665,32.7018634 570.372671,32.0496894 570.745342,31.3043478 C571.21118,30.5590062 571.397516,29.6273292 571.490683,28.6956522 L575.217391,28.6956522 C575.124224,30 574.751553,31.3043478 574.099379,32.4223602 C573.540373,33.5403727 572.701863,34.5652174 571.770186,35.4037267 C570.838509,36.242236 569.720497,36.8944099 568.416149,37.3602484 C567.391304,37.7329193 565.993789,37.9192547 564.503106,37.9192547 Z" id="Path"></path>
                <path d="M589.565217,37.826087 C587.236025,37.826087 585.559006,37.2670807 584.440994,36.0559006 C583.322981,34.8447205 582.763975,33.2608696 582.763975,31.3043478 L582.763975,15.8385093 L579.223602,15.8385093 L579.223602,12.484472 L582.763975,12.484472 L582.763975,6.80124224 L586.770186,6.80124224 L586.770186,12.484472 L592.639752,12.484472 L592.639752,15.8385093 L586.770186,15.8385093 L586.770186,30.8385093 C586.770186,33.2608696 587.795031,34.4720497 589.84472,34.4720497 C590.496894,34.4720497 591.055901,34.378882 591.521739,34.2857143 C591.987578,34.1925466 592.453416,34.0993789 592.919255,33.9130435 L592.919255,37.2670807 C592.546584,37.4534161 592.080745,37.5465839 591.521739,37.6397516 C591.055901,37.826087 590.310559,37.826087 589.565217,37.826087 Z" id="Path"></path>
                <path d="M601.490683,7.26708075 C600.745342,7.26708075 600.093168,6.98757764 599.627329,6.52173913 C599.161491,6.05590062 598.881988,5.40372671 598.881988,4.65838509 C598.881988,3.91304348 599.161491,3.26086957 599.627329,2.79503106 C600.093168,2.32919255 600.745342,2.04968944 601.490683,2.04968944 C602.236025,2.04968944 602.888199,2.32919255 603.354037,2.79503106 C603.819876,3.26086957 604.099379,3.91304348 604.099379,4.65838509 C604.099379,5.40372671 603.819876,6.05590062 603.354037,6.52173913 C602.795031,7.08074534 602.236025,7.26708075 601.490683,7.26708075 Z M599.534161,12.484472 L603.540373,12.484472 L603.540373,37.4534161 L599.534161,37.4534161 L599.534161,12.484472 Z" id="Shape"></path>
                <polygon id="Path" points="609.409938 12.484472 613.695652 12.484472 621.149068 33.447205 628.509317 12.484472 632.608696 12.484472 623.664596 37.4534161 618.63354 37.4534161"></polygon>
                <path d="M647.888199,37.9192547 C646.118012,37.9192547 644.440994,37.6397516 643.043478,36.9875776 C641.552795,36.4285714 640.341615,35.4968944 639.223602,34.4720497 C638.10559,33.3540373 637.267081,32.0496894 636.708075,30.4658385 C636.149068,28.8819876 635.869565,27.2049689 635.869565,25.2484472 L635.869565,24.8757764 C635.869565,23.0124224 636.149068,21.242236 636.708075,19.6583851 C637.267081,18.0745342 638.10559,16.7701863 639.130435,15.5590062 C640.15528,14.4409938 641.36646,13.5093168 642.857143,12.9503106 C644.254658,12.2981366 645.838509,12.0186335 647.608696,12.0186335 C649.006211,12.0186335 650.403727,12.2981366 651.801242,12.6708075 C653.198758,13.136646 654.31677,13.8819876 655.434783,14.9068323 C656.459627,15.931677 657.298137,17.2360248 657.950311,18.8198758 C658.602484,20.4037267 658.881988,22.3602484 658.881988,24.5962733 L658.881988,25.9006211 L640.062112,25.9006211 C640.15528,28.6956522 640.900621,30.8385093 642.204969,32.3291925 C643.509317,33.8198758 645.465839,34.5652174 648.074534,34.5652174 C651.987578,34.5652174 654.223602,33.1677019 654.689441,30.2795031 L658.695652,30.2795031 C658.229814,32.7950311 657.111801,34.6583851 655.15528,35.9627329 C653.012422,37.2670807 650.68323,37.9192547 647.888199,37.9192547 Z M654.596273,22.6397516 C654.409938,20.0310559 653.664596,18.2608696 652.453416,17.1428571 C651.149068,16.0248447 649.565217,15.4658385 647.42236,15.4658385 C645.372671,15.4658385 643.695652,16.1180124 642.391304,17.4223602 C641.086957,18.7267081 640.248447,20.4968944 639.968944,22.6397516 L654.596273,22.6397516 L654.596273,22.6397516 Z" id="Shape"></path>
            </g>
        </g>
    </g>
</svg>